<?xml version="1.0" encoding="utf-8"?>
<!-- Generator: Adobe Illustrator 18.0.0, SVG Export Plug-In . SVG Version: 6.00 Build 0)  -->
<!DOCTYPE svg PUBLIC "-//W3C//DTD SVG 1.1//EN" "http://www.w3.org/Graphics/SVG/1.1/DTD/svg11.dtd">
<svg version="1.1" xmlns="http://www.w3.org/2000/svg" xmlns:xlink="http://www.w3.org/1999/xlink" x="0px" y="0px"
	 viewBox="0 0 489 509" enable-background="new 0 0 489 509" xml:space="preserve">
<g id="图层_2">
	<rect id="XMLID_12_" fill="#FFFFFF" width="489" height="509"/>
</g>
<g id="圖層_1">
	<g id="XMLID_18_">
		<path id="XMLID_9_" fill="#D3151A" d="M353.6,21.4H135.4l-109.1,189l109.1,189h218.2l109.1-189L353.6,21.4z M344.8,384.1H144.2
			L43.9,210.4L144.2,36.7h200.6l100.3,173.7L344.8,384.1z"/>
		<g id="XMLID_2_">
			<polygon id="XMLID_4_" fill="#D3151A" points="120.5,136 92.9,136 49.9,210.4 84.8,270.8 120.5,270.8 			"/>
			<polygon id="XMLID_6_" fill="#D3151A" points="221.3,102.3 112.3,102.3 98.9,125.6 221.3,125.6 			"/>
			<polygon id="XMLID_7_" fill="#D3151A" points="129.7,136 129.7,270.8 129.7,280 120.5,280 90.1,280 147.2,378.9 148.7,378.9 
				148.7,136 			"/>
			<rect id="XMLID_10_" x="165.1" y="136" fill="#D3151A" width="19.5" height="242.9"/>
			<polygon id="XMLID_15_" fill="#D3151A" points="221.3,41.9 147.2,41.9 118.3,91.9 221.3,91.9 			"/>
			<polygon id="XMLID_16_" fill="#D3151A" points="346.3,229.7 295.4,330.7 413.8,167.5 			"/>
			<polygon id="XMLID_17_" fill="#D3151A" points="357.4,69 341.8,41.9 233.9,41.9 233.9,69 			"/>
			<polygon id="XMLID_5_" fill="#D3151A" points="363.4,79.4 408.2,156.8 292.5,156.8 292.5,136 292.5,125.6 292.5,79.4 363,79.4 
							"/>
			<polygon id="XMLID_20_" fill="#D3151A" points="193.9,167.7 193.9,378.9 229.3,378.9 229.3,209.7 			"/>
			<polygon id="XMLID_21_" fill="#D3151A" points="439.1,210.4 415.8,170.1 297.3,332.8 339.4,376.5 295.4,376.5 295.4,330.7 
				295.4,169.5 344.5,227.6 410.2,167.2 292.5,167.2 292.5,378.9 341.8,378.9 			"/>
			<rect id="XMLID_22_" x="193.9" y="136" fill="#D3151A" width="86" height="20.8"/>
			<rect id="XMLID_23_" x="233.9" y="79.4" fill="#D3151A" width="45.9" height="46.2"/>
			<polygon id="XMLID_24_" fill="#D3151A" points="279.9,250.2 279.9,167.2 210,167.2 			"/>
			<polygon id="XMLID_25_" fill="#D3151A" points="238.6,220.7 238.6,378.9 279.9,378.9 279.9,269.7 			"/>
			<rect id="XMLID_26_" x="148.7" y="378.9" fill="#D3151A" width="16.5" height="0.1"/>
		</g>
	</g>
	<text id="XMLID_11_" transform="matrix(1 0 0 1 84.5 481.5489)" font-family="'SimHei'" font-size="80">禄人文化</text>
</g>
</svg>
